{"title":"Of Gods And Men ENG SUBBED DVDSCR XViD - IMAGiNE","uid":6054840,"size":1489011931,"categoryP":"video","categoryS":"movies","magnet":"?xt=urn:btih:2426fac401cfb1df0b13a475d113b89f69b5a788&amp;dn=Of+Gods+And+Men+ENG+SUBBED+DVDSCR+XViD+-+IMAGiNE&amp;tr=udp%3A%2F%2Ftracker.openbittorrent.com%3A80&amp;tr=udp%3A%2F%2Fopen.demonii.com%3A1337&amp;tr=udp%3A%2F%2Ftracker.coppersurfer.tk%3A6969&amp;tr=udp%3A%2F%2Fexodus.desync.com%3A6969","seeders":0,"leechers":1,"uploader":"SAFCukO09","files":103,"time":1292866903,"description":"*********** **** **** *** ******** *********** **** *** **********\n\n*+* +*+*+* *+*+*+ *+* *+* *+* *+* *+* *+*+* *+* *+*\n\n+*+ +*+ +*+*+ +*+ +*+ +*+ +*+ +*+ *+*+*+ +*+ +*+\n\n+$+ +$+ +*+ +$+ +$++*++$++* *$* +$+ +$+ +*+ +$+ +$++*++$\n\n+$+ +$+ +$+ +$+ +$+ +$+ +$+$ +$+ +$+ +$+$+$ +$+\n\n$+$ $+$ $+$ $+$ $+$ $+$ $+$ $+$ $+$ $+$+$ $+$\n\n$$$$$$$$$$$ $$$ $$$ $$$ $$$ $$$$$$$$ $$$$$$$$$$$ $$$ $$$$ $$$$$$$$$$\n\n\n\n\n\n\n\n\n\nAnother Fine Release Brought to you from - IMAGiNE\n\n\n\n\n\n********************************************************************************************************************\n\nOf Gods And Men ENG SUBBED DVDSCR XViD - IMAGiNE\n\n********************************************************************************************************************\n\n\n\nRipper ...........: IMAGiNE IMDB Rating.......:7.6/10\n\nVideo Codec.......: XVID Release Date......:09/08/10\n\nAudio Codec.......:MP3 Theatre Date......:09/08/10\n\nAudio Bitrate.....:128 Runtime.......:1h 57mn\n\nSubtitles.........:English Language..........:French\n\nResolution...... 640 x 272 IMDb URL.......... http://www.imdb.com/title/tt1588337/\n\n\n\n\n\nDETAILS:\n\nVideo\n\nFormat : MPEG-4 Visual\n\nFormat profile : Streaming Video@L1\n\nFormat settings, BVOP : Yes\n\nFormat settings, QPel : No\n\nFormat settings, GMC : No warppoints\n\nFormat settings, Matrix : Default\n\nMuxing mode : Packed bitstream\n\nCodec ID : XVID\n\nCodec ID/Hint : XviD\n\nDuration : 1h 57mn\n\nBit rate : 1 533 Kbps\n\nWidth : 640 pixels\n\nHeight : 272 pixels\n\nDisplay aspect ratio : 2.35\n\nFrame rate : 25.000 fps\n\nResolution : 24 bits\n\nColorimetry : 4:2:0\n\nScan type : Progressive\n\nBits/(Pixel*Frame) : 0.352\n\nStream size : 1.26 GiB (92%)\n\nWriting library : XviD 1.1.2 (UTC 2006-11-01)\n\n\n\nAudio\n\nFormat : MPEG Audio\n\nFormat version : Version 1\n\nFormat profile : Layer 3\n\nCodec ID : 55\n\nCodec ID/Hint : MP3\n\nDuration : 1h 57mn\n\nBit rate mode : Constant\n\nBit rate : 128 Kbps\n\nChannel(s) : 2 channels\n\nSampling rate : 48.0 KHz\n\nResolution : 16 bits\n\nStream size : 108 MiB (8%)\n\nAlignment : Split accross interleaves\n\nInterleave, duration : 40 ms (1.00 video frame)\n\nInterleave, preload duration : 500 ms\n\n\n\n\n\n\n\n\n\nSOURCES:\n\n\n\n\n\nVideo: Des.Hommes.et.des.Dieux.(Of.Gods.And.Men).2010.LiMiTED.SUBBED.DVDSCR.XViD-HLS... Thanks\n\nAudio: Des.Hommes.et.des.Dieux.(Of.Gods.And.Men).2010.LiMiTED.SUBBED.DVDSCR.XViD-HLS... Thanks\n\n\n\n\n\n\n\nNOTES:\n\n\n\nIMAGiNE bringing you another release..........Of Gods And Men ENG SUBBED DVDSCR\n\n\n\nWe found this and it looked to be a good film so What we did was use HLS release and did our own encode from that. We just made a small script containing resize,white balance,rgb eq,sharpness,chroma,brightness,contrast ect. It has no english audio but English subs Wish it did ","torrent":{"xt":"urn:btih:2426fac401cfb1df0b13a475d113b89f69b5a788","amp;dn":"Of+Gods+And+Men+ENG+SUBBED+DVDSCR+XViD+-+IMAGiNE","amp;tr":["udp%3A%2F%2Ftracker.openbittorrent.com%3A80","udp%3A%2F%2Fopen.demonii.com%3A1337","udp%3A%2F%2Ftracker.coppersurfer.tk%3A6969","udp%3A%2F%2Fexodus.desync.com%3A6969"],"infoHash":"2426fac401cfb1df0b13a475d113b89f69b5a788","infoHashBuffer":{"type":"Buffer","data":[36,38,250,196,1,207,177,223,11,19,164,117,209,19,184,159,105,181,167,136]},"announce":[],"urlList":[]}}